<svg xmlns="http://www.w3.org/2000/svg" viewBox="0 0 400 200" fill="none">
  <!-- Shoe 1: red, tilted +12° clockwise, upper-left of tile -->
  <g transform="rotate(12, 113, 72)">
    <g transform="translate(8, 12)">
      <path
        stroke="#C8102E" stroke-width="1.4" stroke-linecap="round" stroke-linejoin="round"
        d="M 20 88 L 180 88 Q 190 88 194 80 Q 198 72 192 65 L 172 63
           C 160 49 144 39 124 33 C 104 27 82 27 64 34
           L 54 40 L 44 50 L 32 62 L 24 66
           C 17 66 12 70 12 76 C 12 82 16 88 20 88 Z"
      />
      <path
        stroke="#C8102E" stroke-width="0.9" stroke-linecap="round"
        d="M 64 34 C 72 28 83 24 96 22 C 110 20 122 23 132 29"
      />
      <path
        stroke="#C8102E" stroke-width="0.7" stroke-linecap="round"
        d="M 24 66 C 22 57 24 48 31 41"
      />
    </g>
  </g>

  <!-- Shoe 2: grey, mirrored, smaller, tilted −8° for variety, lower-right of tile -->
  <g transform="rotate(-8, 331, 156)">
    <g transform="translate(392, 188) rotate(180) scale(0.58)">
      <path
        stroke="#7a7a7a" stroke-width="1.4" stroke-linecap="round" stroke-linejoin="round"
        d="M 20 88 L 180 88 Q 190 88 194 80 Q 198 72 192 65 L 172 63
           C 160 49 144 39 124 33 C 104 27 82 27 64 34
           L 54 40 L 44 50 L 32 62 L 24 66
           C 17 66 12 70 12 76 C 12 82 16 88 20 88 Z"
      />
      <path
        stroke="#7a7a7a" stroke-width="0.9" stroke-linecap="round"
        d="M 64 34 C 72 28 83 24 96 22 C 110 20 122 23 132 29"
      />
    </g>
  </g>
</svg>
